<svg width="22" height="24" viewBox="0 0 22 24" fill="none" xmlns="http://www.w3.org/2000/svg">
<path d="M15.125 0.584106H6.875C3.07863 0.584106 0 3.8126 0 7.79379V16.4454C0 20.4266 3.07863 23.6551 6.875 23.6551H15.125C18.9214 23.6551 22 20.4266 22 16.4454V7.79379C22 3.8126 18.9214 0.584106 15.125 0.584106ZM19.9375 16.4454C19.9375 19.2283 17.7787 21.4922 15.125 21.4922H6.875C4.22125 21.4922 2.0625 19.2283 2.0625 16.4454V7.79379C2.0625 5.01085 4.22125 2.74701 6.875 2.74701H15.125C17.7787 2.74701 19.9375 5.01085 19.9375 7.79379V16.4454Z" fill="#F13C6E"/>
</svg>
